<svg width="65" height="46" viewBox="0 0 65 46" fill="none" xmlns="http://www.w3.org/2000/svg">
<path d="M60.3571 0H4.64286C3.41149 0 2.23057 0.480105 1.35986 1.3347C0.489157 2.18929 0 3.34837 0 4.55694V41.0125C0 42.2211 0.489157 43.3802 1.35986 44.2347C2.23057 45.0893 3.41149 45.5694 4.64286 45.5694H60.3571C61.5885 45.5694 62.7694 45.0893 63.6401 44.2347C64.5108 43.3802 65 42.2211 65 41.0125V4.55694C65 3.34837 64.5108 2.18929 63.6401 1.3347C62.7694 0.480105 61.5885 0 60.3571 0ZM60.3571 4.55694V11.3924H4.64286V4.55694H60.3571ZM60.3571 41.0125H4.64286V15.9493H60.3571V41.0125ZM55.7143 34.1771C55.7143 34.7814 55.4697 35.3609 55.0344 35.7882C54.599 36.2155 54.0085 36.4556 53.3929 36.4556H44.1071C43.4915 36.4556 42.901 36.2155 42.4656 35.7882C42.0303 35.3609 41.7857 34.7814 41.7857 34.1771C41.7857 33.5728 42.0303 32.9933 42.4656 32.566C42.901 32.1387 43.4915 31.8986 44.1071 31.8986H53.3929C54.0085 31.8986 54.599 32.1387 55.0344 32.566C55.4697 32.9933 55.7143 33.5728 55.7143 34.1771ZM37.1429 34.1771C37.1429 34.7814 36.8983 35.3609 36.4629 35.7882C36.0276 36.2155 35.4371 36.4556 34.8214 36.4556H30.1786C29.5629 36.4556 28.9724 36.2155 28.5371 35.7882C28.1017 35.3609 27.8571 34.7814 27.8571 34.1771C27.8571 33.5728 28.1017 32.9933 28.5371 32.566C28.9724 32.1387 29.5629 31.8986 30.1786 31.8986H34.8214C35.4371 31.8986 36.0276 32.1387 36.4629 32.566C36.8983 32.9933 37.1429 33.5728 37.1429 34.1771Z" fill="#BE9061"/>
</svg>
