<svg width="33" height="22" viewBox="0 0 33 22" fill="none" xmlns="http://www.w3.org/2000/svg">
<path d="M32.9202 7.98511L30.9952 3.40349C30.8319 3.01585 30.5501 2.68382 30.1863 2.45043C29.8225 2.21703 29.3934 2.09302 28.9547 2.09446H24.2V1.04723C24.2 0.769486 24.0841 0.50312 23.8778 0.306726C23.6715 0.110333 23.3917 0 23.1 0H2.2C1.61652 0 1.05694 0.220665 0.644365 0.613452C0.231785 1.00624 0 1.53897 0 2.09446V16.7556C0 17.3111 0.231785 17.8439 0.644365 18.2367C1.05694 18.6294 1.61652 18.8501 2.2 18.8501H4.5375C4.77983 19.7512 5.33027 20.5498 6.10204 21.1201C6.87381 21.6904 7.82301 22 8.8 22C9.77699 22 10.7262 21.6904 11.498 21.1201C12.2697 20.5498 12.8202 19.7512 13.0625 18.8501H19.9375C20.1798 19.7512 20.7303 20.5498 21.502 21.1201C22.2738 21.6904 23.223 22 24.2 22C25.177 22 26.1262 21.6904 26.898 21.1201C27.6697 20.5498 28.2202 19.7512 28.4625 18.8501H30.8C31.3835 18.8501 31.943 18.6294 32.3556 18.2367C32.7682 17.8439 33 17.3111 33 16.7556V8.37782C33.0005 8.24323 32.9734 8.10983 32.9202 7.98511ZM24.2 4.18891H28.9547L30.2747 7.3306H24.2V4.18891ZM2.2 2.09446H22V10.4723H2.2V2.09446ZM8.8 19.8973C8.36488 19.8973 7.93953 19.7745 7.57774 19.5444C7.21596 19.3142 6.93398 18.9871 6.76746 18.6044C6.60095 18.2217 6.55738 17.8006 6.64227 17.3943C6.72716 16.988 6.93669 16.6148 7.24436 16.3219C7.55204 16.029 7.94404 15.8295 8.3708 15.7487C8.79756 15.6678 9.2399 15.7093 9.6419 15.8679C10.0439 16.0264 10.3875 16.2948 10.6292 16.6393C10.871 16.9837 11 17.3886 11 17.8029C11 18.3584 10.7682 18.8911 10.3556 19.2839C9.94305 19.6767 9.38347 19.8973 8.8 19.8973ZM19.9375 16.7556H13.0625C12.8202 15.8546 12.2697 15.056 11.498 14.4856C10.7262 13.9153 9.77699 13.6058 8.8 13.6058C7.82301 13.6058 6.87381 13.9153 6.10204 14.4856C5.33027 15.056 4.77983 15.8546 4.5375 16.7556H2.2V12.5667H22V14.1782C21.4941 14.4564 21.0513 14.8276 20.6973 15.27C20.3432 15.7125 20.085 16.2174 19.9375 16.7556ZM24.2 19.8973C23.7649 19.8973 23.3395 19.7745 22.9777 19.5444C22.616 19.3142 22.334 18.9871 22.1675 18.6044C22.0009 18.2217 21.9574 17.8006 22.0423 17.3943C22.1272 16.988 22.3367 16.6148 22.6444 16.3219C22.952 16.029 23.344 15.8295 23.7708 15.7487C24.1976 15.6678 24.6399 15.7093 25.0419 15.8679C25.4439 16.0264 25.7875 16.2948 26.0292 16.6393C26.271 16.9837 26.4 17.3886 26.4 17.8029C26.4 18.3584 26.1682 18.8911 25.7556 19.2839C25.343 19.6767 24.7835 19.8973 24.2 19.8973ZM30.8 16.7556H28.4625C28.2173 15.8568 27.6658 15.0608 26.8944 14.4922C26.1231 13.9237 25.1755 13.6148 24.2 13.614V9.42505H30.8V16.7556Z" fill="white"/>
</svg>
