<svg width="65" height="40" viewBox="0 0 65 40" fill="none" xmlns="http://www.w3.org/2000/svg">
<path d="M64.8429 14.5184L61.0512 6.18817C60.7296 5.48336 60.1745 4.87968 59.4579 4.45532C58.7413 4.03096 57.8962 3.80549 57.0321 3.8081H47.6667V1.90405C47.6667 1.39907 47.4384 0.914763 47.0321 0.557684C46.6257 0.200605 46.0746 0 45.5 0H4.33333C3.18406 0 2.08186 0.401209 1.2692 1.11537C0.456546 1.82952 0 2.79813 0 3.8081V30.4648C0 31.4748 0.456546 32.4434 1.2692 33.1575C2.08186 33.8717 3.18406 34.2729 4.33333 34.2729H8.9375C9.41482 35.9112 10.499 37.3633 12.0192 38.4002C13.5393 39.4372 15.409 40 17.3333 40C19.2577 40 21.1273 39.4372 22.6475 38.4002C24.1676 37.3633 25.2518 35.9112 25.7292 34.2729H39.2708C39.7481 35.9112 40.8323 37.3633 42.3525 38.4002C43.8726 39.4372 45.7423 40 47.6667 40C49.591 40 51.4607 39.4372 52.9808 38.4002C54.501 37.3633 55.5852 35.9112 56.0625 34.2729H60.6667C61.8159 34.2729 62.9181 33.8717 63.7308 33.1575C64.5434 32.4434 65 31.4748 65 30.4648V15.2324C65.001 14.9877 64.9476 14.7451 64.8429 14.5184ZM47.6667 7.6162H57.0321L59.6321 13.3284H47.6667V7.6162ZM4.33333 3.8081H43.3333V19.0405H4.33333V3.8081ZM17.3333 36.177C16.4763 36.177 15.6385 35.9536 14.9259 35.5352C14.2132 35.1167 13.6578 34.522 13.3299 33.8262C13.0019 33.1303 12.9161 32.3646 13.0833 31.6259C13.2505 30.8872 13.6632 30.2087 14.2692 29.6761C14.8752 29.1436 15.6474 28.7809 16.4879 28.6339C17.3285 28.487 18.1998 28.5624 18.9916 28.8506C19.7834 29.1389 20.4602 29.627 20.9364 30.2532C21.4125 30.8794 21.6667 31.6157 21.6667 32.3689C21.6667 33.3788 21.2101 34.3474 20.3975 35.0616C19.5848 35.7758 18.4826 36.177 17.3333 36.177ZM39.2708 30.4648H25.7292C25.2518 28.8265 24.1676 27.3745 22.6475 26.3375C21.1273 25.3006 19.2577 24.7377 17.3333 24.7377C15.409 24.7377 13.5393 25.3006 12.0192 26.3375C10.499 27.3745 9.41482 28.8265 8.9375 30.4648H4.33333V22.8486H43.3333V25.7785C42.3369 26.2844 41.4648 26.9592 40.7674 27.7637C40.07 28.5681 39.5613 29.4863 39.2708 30.4648ZM47.6667 36.177C46.8096 36.177 45.9718 35.9536 45.2592 35.5352C44.5466 35.1167 43.9912 34.522 43.6632 33.8262C43.3352 33.1303 43.2494 32.3646 43.4166 31.6259C43.5838 30.8872 43.9965 30.2087 44.6025 29.6761C45.2086 29.1436 45.9807 28.7809 46.8213 28.6339C47.6618 28.487 48.5331 28.5624 49.325 28.8506C50.1168 29.1389 50.7935 29.627 51.2697 30.2532C51.7458 30.8794 52 31.6157 52 32.3689C52 33.3788 51.5434 34.3474 50.7308 35.0616C49.9181 35.7758 48.8159 36.177 47.6667 36.177ZM60.6667 30.4648H56.0625C55.5794 28.8305 54.4932 27.3832 52.9739 26.3495C51.4546 25.3159 49.5881 24.7543 47.6667 24.7527V17.1365H60.6667V30.4648Z" fill="#BE9061"/>
</svg>
