<svg width="40" height="35" viewBox="0 0 40 35" fill="none" xmlns="http://www.w3.org/2000/svg">
<path d="M39.9799 31.8231L37.4339 10.9245C37.3514 10.2436 37.0143 9.61633 36.4873 9.16264C35.9602 8.70895 35.2802 8.46074 34.5773 8.46548H28.573C28.573 6.24843 27.6701 4.12218 26.063 2.55448C24.4558 0.986786 22.276 0.106064 20.0032 0.106064C17.7303 0.106064 15.5505 0.986786 13.9433 2.55448C12.3362 4.12218 11.4333 6.24843 11.4333 8.46548H5.42185C4.71894 8.46074 4.03892 8.70895 3.51188 9.16264C2.98485 9.61633 2.6478 10.2436 2.56522 10.9245L0.0192488 31.8231C-0.0274077 32.2131 0.0109837 32.6084 0.131905 32.983C0.252827 33.3575 0.453548 33.7029 0.720908 33.9965C0.990201 34.2914 1.32019 34.5275 1.68936 34.6896C2.05852 34.8516 2.45856 34.9359 2.86338 34.937H37.1286C37.5359 34.9379 37.9387 34.8545 38.3104 34.6924C38.6822 34.5303 39.0145 34.2931 39.2854 33.9965C39.5515 33.7024 39.7509 33.3567 39.8706 32.9822C39.9903 32.6076 40.0275 32.2126 39.9799 31.8231ZM20.0032 2.89254C21.5184 2.89254 22.9716 3.47968 24.043 4.52481C25.1145 5.56994 25.7164 6.98745 25.7164 8.46548H14.2899C14.2899 6.98745 14.8918 5.56994 15.9633 4.52481C17.0347 3.47968 18.4879 2.89254 20.0032 2.89254ZM2.86338 32.1505L5.42185 11.252H11.4333V15.4317C11.4333 15.8012 11.5837 16.1555 11.8516 16.4168C12.1195 16.6781 12.4828 16.8249 12.8616 16.8249C13.2404 16.8249 13.6037 16.6781 13.8716 16.4168C14.1394 16.1555 14.2899 15.8012 14.2899 15.4317V11.252H25.7164V15.4317C25.7164 15.8012 25.8669 16.1555 26.1348 16.4168C26.4026 16.6781 26.7659 16.8249 27.1447 16.8249C27.5235 16.8249 27.8868 16.6781 28.1547 16.4168C28.4226 16.1555 28.573 15.8012 28.573 15.4317V11.252H34.5987L37.1286 32.1505H2.86338Z" fill="#79191D"/>
</svg>
