<svg width="53" height="47" viewBox="0 0 53 47" fill="none" xmlns="http://www.w3.org/2000/svg">
<path d="M21.8686 9.90188L25.8921 17.2987C26.0103 17.5172 26.0619 17.7597 26.0417 18.0016C26.0215 18.2436 25.9302 18.4766 25.777 18.6769L23.0434 22.2541C24.066 24.0892 25.7087 25.5903 27.7389 26.545L31.8003 24.1812C32.028 24.0489 32.2906 23.9725 32.5618 23.9599C32.833 23.9473 33.1032 23.9988 33.345 24.1093L41.5308 27.8697C41.7869 27.9867 42.0014 28.1652 42.15 28.3853C42.2986 28.6053 42.3755 28.858 42.3719 29.115C42.3428 31.4316 41.2849 33.6429 39.431 35.2626C37.5771 36.8823 35.0791 37.7776 32.4865 37.7515C26.621 37.6866 21.0239 35.5455 16.923 31.7979C12.8221 28.0504 10.5522 23.0024 10.6113 17.7614C10.6404 15.4448 11.6983 13.2335 13.5521 11.6138C15.406 9.99414 17.9041 9.09885 20.4967 9.12487C20.7836 9.12768 21.0639 9.20187 21.3063 9.33912C21.5486 9.47637 21.7433 9.67125 21.8686 9.90188ZM13.6983 17.7924C13.6477 22.3021 15.601 26.6455 19.1296 29.8701C22.6583 33.0947 27.4742 34.9371 32.5211 34.9932C34.1354 35.0093 35.7017 34.5032 36.9311 33.5683C38.1605 32.6333 38.97 31.3327 39.2102 29.9063L32.7332 26.9308L28.6951 29.2788C28.4822 29.4022 28.2384 29.4767 27.9855 29.4959C27.7326 29.515 27.4784 29.4781 27.2452 29.3884C23.8866 28.0863 21.2323 25.6608 19.8509 22.6313C19.7558 22.421 19.7203 22.1931 19.7473 21.9676C19.7744 21.7421 19.8633 21.526 20.0061 21.3386L22.724 17.7842L19.5403 11.9314C17.9389 12.114 16.4655 12.8079 15.3918 13.885C14.3181 14.9622 13.7166 16.35 13.6983 17.7924ZM52.7314 23.7016C52.6813 27.7661 51.4495 31.7491 49.1569 35.2598C46.8643 38.7706 43.5897 41.6885 39.6543 43.7273C35.7189 45.7662 31.2579 46.8559 26.709 46.8896C22.16 46.9233 17.6795 45.8997 13.7068 43.9195L4.70278 46.5004C4.06583 46.6831 3.38451 46.7037 2.73518 46.5599C2.08586 46.4161 1.49419 46.1135 1.02649 45.6861C0.5588 45.2587 0.233563 44.7234 0.0872335 44.1401C-0.0590957 43.5568 -0.0207375 42.9487 0.198021 42.3838L3.2881 34.3986C1.42198 31.2419 0.387221 27.7461 0.262729 24.1779C0.138237 20.6096 0.927295 17.063 2.56974 13.8086C4.21218 10.5542 6.66464 7.67786 9.74011 5.39893C12.8156 3.12 16.4328 1.49866 20.3161 0.658531C24.1993 -0.181598 28.246 -0.218326 32.1475 0.551145C36.0491 1.32062 39.7024 2.87597 42.8291 5.09861C45.9557 7.32125 48.4731 10.1525 50.1891 13.3764C51.9052 16.6003 52.7748 20.1319 52.7314 23.7016ZM3.33879 23.2058C3.2921 26.8423 4.31906 30.4256 6.31617 33.5945C6.44845 33.8058 6.51724 34.0441 6.51587 34.2862C6.51303 34.4345 6.48427 34.5816 6.43063 34.7221L3.11718 43.2844C3.08593 43.3651 3.08045 43.452 3.10135 43.5353C3.12225 43.6186 3.16872 43.6951 3.23553 43.7562C3.30235 43.8172 3.38687 43.8604 3.47963 43.881C3.57239 43.9015 3.66972 43.8986 3.76072 43.8725L13.4051 41.1049C13.6135 41.045 13.8338 41.0254 14.0513 41.0474C14.2689 41.0694 14.4787 41.1325 14.6668 41.2325C19.0498 43.5587 24.1694 44.5275 29.2314 43.9884C34.2935 43.4494 39.0149 41.4328 42.6633 38.2514C46.3117 35.07 48.6831 30.9016 49.4095 26.3931C50.1359 21.8845 49.1768 17.2878 46.6809 13.316C44.185 9.34425 40.292 6.21948 35.6056 4.4265C30.9193 2.63351 25.7018 2.27254 20.7624 3.3996C15.8231 4.52665 11.4381 7.07872 8.28772 10.6599C5.13736 14.241 3.39775 18.651 3.33879 23.2058Z" fill="#BE9061"/>
</svg>
